# xmcd CD database file
#
# Track frame offsets:
#	182
#	11930
#	44672
#	69467
#	78732
#	111922
#	159965
#	184055
#	209075
#
# Disc length: 2994 seconds
#
# Revision: 0
# Processed by: cddbd v1.5.2PL0 Copyright (c) Steve Scherf et al.
# Submitted via: CDex 1.70beta2
#
DISCID=820bb009
DTITLE=Trio Machado - Sequence Thmiryque
DYEAR=1992
DGENRE=Jazz
TTITLE0=Séquence Thmiryque
TTITLE1=Une toute petite valse
TTITLE2=Neutrinos primordiaux
TTITLE3=La danse des éphémères
TTITLE4=Tout seul au milieu de la vie
TTITLE5=Olive sur une mer d'huile
TTITLE6=Quelques heures dans la salle de bains
TTITLE7=Mobile immobiles
TTITLE8=La lumière s'en va
EXTD=YEAR: 1992
EXTT0=
EXTT1=
EXTT2=
EXTT3=
EXTT4=
EXTT5=
EXTT6=
EXTT7=
EXTT8=
PLAYORDER=
